<svg width="26" height="19" xmlns="http://www.w3.org/2000/svg"><g id="Userflow" stroke="none" stroke-width="1" fill="none" fill-rule="evenodd"><g id="Cart---multiple-item" transform="translate(-1103 -20)"><g id="Page-1" transform="translate(1104 21)"><path d="M5.592 2.093C5.356.865 4.34-.012 3.17 0H.276C.123 0 0 .132 0 .294 0 .458.123.59.276.59H3.17c.901.004 1.68.679 1.872 1.62l1.71 8.254c.297 1.486 1.527 2.54 2.947 2.536h9.834c1.443.002 2.686-1.082 2.975-2.594l1.487-8.313a.297.297 0 00-.214-.35c-.014-.002-4.47-.004-13.367-.005-.151 0-.275.132-.275.295 0 .162.124.294.275.294h13.004l-1.434 7.96c-.224 1.246-1.237 2.147-2.423 2.153H9.726c-1.172.011-2.188-.866-2.425-2.094L5.592 2.093z" id="Fill-1" stroke="#373837" stroke-width=".25" fill="#000"/><path d="M8.5 18a1.5 1.5 0 110-3 1.5 1.5 0 010 3z" id="Fill-5" fill="#373837"/><path d="M22 16.5a1.5 1.5 0 01-1.5 1.5 1.5 1.5 0 111.5-1.5" id="Fill-7" fill="#373837"/></g></g></g></svg>